<?xml version="1.0" encoding="utf-8"?>
<!-- Generator: Adobe Illustrator 29.3.1, SVG Export Plug-In . SVG Version: 9.03 Build 55982)  -->
<svg version="1.1" id="Layer_1" xmlns="http://www.w3.org/2000/svg" xmlns:xlink="http://www.w3.org/1999/xlink" x="0px" y="0px"
	 viewBox="0 0 1000 1000" style="enable-background:new 0 0 1000 1000;" xml:space="preserve">
<g>
	<path d="M307.2,370.5h55.8c7,24.5,13.8,47.3,20.4,68.8c10.9,36.8,23.3,78.3,28.4,97c0.2,1.5,1.2,2.2,2.9,2.2c1.5,0,2.4-0.7,2.9-2.2
		l45.8-165.8h61.6v3.4c-12.4,0-19.6,5.6-19.6,25v179.9c0,19.2,7.8,25,19.6,25v3.4h-81.5v-3.4c12.4,0,19.9-5.8,19.9-25v-177
		c0-1.7-0.7-2.4-2.4-2.4c-1.2,0-1.9,0.5-2.2,1.7l-57,206.1h-11.2l-55.8-190.5c-0.5-1.2-1.2-1.7-2.4-1.7c-1.7,0-2.4,0.7-2.4,2.4
		v161.4c0,19.2,7,25,19.9,25v3.4h-42.7v-3.4c12.4,0,19.9-5.8,19.9-25V398.9c0-19.4-7.5-25-19.9-25V370.5z"/>
	<path d="M537.2,607.1v-3.4c11.9,0,19.9-5.8,19.9-25V398.9c0-19.4-8-25-19.9-25v-3.4h154.2l8,65h-2.9c-7.8-50.2-25.7-61.6-52.6-61.6
		h-45.1v70.3c0,29.1,7,42.9,28.4,42.9c19.4,0,28.8-6.1,35.9-22.1h2.9v47.3H663c-6.5-15.5-13.8-21.8-35.9-21.8
		c-16.2,0-25.7-8.7-28.4-20.4v109.6c0.2,18.4,8,24,19.9,24v3.4H537.2z"/>
</g>
</svg>